<?xml version="1.0" standalone="no"?>
<!DOCTYPE svg PUBLIC "-//W3C//DTD SVG 20010904//EN"
 "http://www.w3.org/TR/2001/REC-SVG-20010904/DTD/svg10.dtd">
<svg version="1.0" xmlns="http://www.w3.org/2000/svg"
 width="1698.000000pt" height="1698.000000pt" viewBox="0 0 1698.000000 1698.000000"
 preserveAspectRatio="xMidYMid meet">
<metadata>
Created by potrace 1.14, written by Peter Selinger 2001-2017
</metadata>
<g transform="translate(0.000000,1698.000000) scale(0.100000,-0.100000)"
fill="#000000" stroke="none">
<path d="M12820 16964 c-93 -25 -161 -64 -230 -134 -71 -71 -110 -138 -135
-235 -37 -144 3 -324 95 -428 16 -19 30 -39 30 -43 0 -13 -1781 -1790 -1807
-1803 -42 -21 -89 -11 -214 45 -602 270 -1299 471 -1970 569 -582 84 -1259 98
-1839 39 -1355 -138 -2655 -652 -3750 -1482 -307 -233 -516 -416 -800 -701
-815 -817 -1425 -1796 -1794 -2879 -221 -650 -346 -1288 -387 -1987 -15 -251
-7 -816 15 -1055 120 -1312 546 -2510 1273 -3580 387 -569 891 -1122 1428
-1566 1138 -942 2558 -1535 4020 -1678 542 -53 1168 -46 1685 20 1351 172
2618 701 3690 1543 245 192 412 342 676 605 263 264 413 431 605 676 842 1072
1371 2339 1543 3690 66 518 73 1142 20 1685 -76 773 -293 1592 -608 2294 -56
125 -66 172 -45 214 13 26 1790 1807 1803 1807 4 0 24 -14 43 -30 157 -138
431 -143 607 -11 201 152 262 421 146 640 -25 46 -371 397 -1863 1888 -1494
1494 -1842 1836 -1884 1857 -108 54 -244 69 -353 40z m255 -224 c54 -26 245
-215 1856 -1827 1995 -1997 1841 -1832 1841 -1973 0 -165 -126 -291 -292 -292
-143 -1 13 -147 -1991 1859 -1995 1997 -1841 1832 -1841 1973 0 177 152 313
327 293 22 -3 67 -18 100 -33z m1285 -2385 l1625 -1625 -917 -917 c-982 -983
-950 -948 -964 -1064 -8 -71 3 -111 91 -309 765 -1734 815 -3740 138 -5515
-878 -2298 -2869 -4017 -5264 -4544 -1032 -227 -2139 -224 -3171 10 -2986 675
-5246 3163 -5627 6194 -189 1505 86 3014 791 4329 1081 2019 3032 3429 5253
3795 424 70 740 95 1195 95 360 0 524 -9 840 -45 739 -85 1455 -280 2120 -577
165 -74 209 -86 279 -78 118 14 79 -21 1061 961 503 503 917 915 920 915 3 0
736 -731 1630 -1625z"/>
<path d="M6315 14079 c-114 -15 -355 -67 -502 -109 -1079 -306 -2295 -1024
-3043 -1797 -434 -448 -696 -889 -790 -1328 -30 -140 -38 -386 -17 -520 39
-246 133 -468 289 -685 l53 -75 -7 -55 c-10 -70 -73 -198 -135 -274 -26 -33
-122 -127 -211 -210 -90 -83 -187 -180 -214 -216 -93 -120 -148 -276 -148
-423 0 -136 60 -378 136 -546 l29 -63 0 88 c0 79 3 96 30 149 37 73 134 174
196 203 117 56 274 -2 323 -120 21 -48 20 -111 0 -156 -10 -21 -89 -109 -186
-205 -118 -117 -176 -182 -189 -212 -36 -82 -43 -190 -24 -400 9 -105 20 -257
26 -338 23 -364 -42 -671 -187 -873 -87 -123 -195 -187 -385 -230 -184 -41
-223 -66 -239 -152 -15 -85 26 -293 85 -434 92 -219 275 -373 510 -429 222
-53 527 -12 783 106 l75 35 -61 55 c-166 151 -216 328 -158 556 31 120 82 239
249 576 194 393 274 625 297 865 32 325 97 537 217 706 107 150 271 209 372
134 86 -63 125 -165 125 -322 0 -154 -36 -302 -117 -480 l-43 -95 78 -162
c121 -254 205 -454 263 -628 146 -436 139 -729 -19 -887 -42 -42 -155 -108
-185 -108 -34 0 119 -168 214 -235 161 -114 350 -169 500 -145 92 14 163 48
225 106 59 55 94 123 115 219 29 140 20 224 -61 525 -187 699 -191 1067 -15
1425 66 134 151 267 296 466 130 178 139 198 139 324 -1 117 -21 209 -94 425
-26 80 -51 161 -55 182 l-7 36 89 6 c323 22 443 42 633 105 207 70 387 173
560 322 78 68 244 248 236 257 -3 2 -125 -26 -273 -62 -147 -36 -316 -72 -374
-81 -233 -33 -438 -11 -592 64 -45 22 -91 46 -102 55 l-20 15 20 15 c40 29
265 148 365 192 219 96 462 166 692 199 152 22 419 20 560 -4 585 -101 876
-504 762 -1057 -48 -235 -146 -409 -534 -944 -331 -459 -462 -664 -590 -925
-261 -534 -313 -986 -165 -1430 123 -373 369 -756 934 -1460 124 -154 308
-383 408 -508 453 -564 721 -956 918 -1342 137 -268 235 -545 273 -772 10 -56
20 -104 23 -107 3 -3 11 29 17 72 99 649 -71 1390 -466 2032 -97 157 -277 424
-481 713 -223 316 -389 567 -469 712 -203 364 -255 672 -165 960 33 106 118
268 200 385 92 130 371 407 673 671 265 230 451 411 572 554 91 109 228 295
293 400 26 42 49 74 52 72 14 -14 -122 -287 -207 -417 -121 -183 -236 -323
-529 -645 -423 -465 -565 -692 -611 -978 -17 -104 -7 -247 25 -367 32 -119
133 -325 217 -442 214 -297 551 -620 988 -948 l85 -64 -98 94 c-286 272 -515
638 -607 970 -81 294 -62 595 56 848 77 168 151 260 414 522 327 324 432 447
617 722 294 436 495 903 608 1408 193 872 73 1761 -335 2458 -28 47 -29 52
-11 52 35 0 176 -79 258 -145 216 -173 410 -497 478 -795 24 -108 27 -111 41
-50 26 108 38 279 37 520 0 537 -80 804 -326 1090 -250 292 -666 492 -1093
528 l-99 8 57 28 c31 15 107 39 170 54 108 25 125 27 373 27 235 0 268 -2 347
-22 168 -43 303 -112 408 -209 33 -31 60 -51 60 -46 0 31 -69 211 -116 303
-207 405 -573 634 -1127 705 -163 21 -533 15 -697 -11 -187 -29 -426 -84 -525
-121 -20 -7 -20 -7 -1 15 35 39 161 130 271 196 257 152 572 245 942 276 145
12 348 7 428 -11 26 -6 49 -9 51 -7 8 8 -221 151 -308 191 -427 200 -923 259
-1471 176 -502 -77 -1080 -284 -1537 -552 l-55 -32 53 61 c123 143 341 329
534 456 392 257 783 399 1253 453 204 23 217 28 124 42 -269 41 -831 51 -1071
19 -425 -57 -855 -172 -1183 -317 -393 -173 -923 -501 -1432 -884 -25 -19 -25
-19 -15 0 54 97 234 314 374 450 403 389 998 749 1611 975 138 50 137 56 -8
38z"/>
<path d="M14880 13001 c-46 -15 -85 -39 -116 -73 -54 -57 -69 -95 -69 -178 0
-83 15 -121 69 -178 53 -57 101 -77 186 -77 85 0 133 20 186 77 54 57 69 95
69 178 0 54 -6 85 -19 110 -26 49 -74 98 -121 122 -43 22 -144 33 -185 19z
m149 -138 c85 -63 75 -186 -20 -236 -92 -49 -208 33 -195 137 12 104 133 159
215 99z"/>
<path d="M13581 12705 c-316 -89 -442 -458 -247 -723 49 -66 138 -130 218
-159 79 -27 234 -24 310 6 84 33 168 99 215 170 60 89 78 149 78 261 0 112
-18 172 -78 261 -47 71 -132 138 -215 169 -75 29 -207 36 -281 15z m264 -140
c63 -30 139 -108 168 -173 16 -36 21 -66 21 -132 0 -66 -5 -96 -21 -132 -30
-66 -105 -143 -172 -175 -48 -24 -68 -28 -141 -28 -73 0 -93 4 -141 28 -67 32
-142 109 -172 175 -30 66 -30 198 0 264 25 54 90 128 141 160 88 54 222 60
317 13z"/>
<path d="M12930 11298 c-54 -17 -75 -31 -131 -87 -58 -58 -70 -76 -88 -135
-12 -37 -21 -90 -21 -116 0 -26 9 -79 21 -116 18 -59 30 -77 88 -135 58 -58
76 -70 135 -88 37 -12 90 -21 116 -21 26 0 79 9 116 21 59 18 77 30 135 88 58
58 70 76 88 135 12 37 21 90 21 116 0 26 -9 79 -21 116 -18 59 -30 77 -88 135
-58 58 -76 70 -135 88 -84 26 -152 26 -236 -1z m226 -126 c84 -43 128 -117
128 -212 0 -137 -96 -234 -234 -234 -138 0 -234 97 -234 234 0 112 62 195 174
231 38 13 123 3 166 -19z"/>
<path d="M11162 10089 c-46 -23 -83 -65 -102 -114 -6 -16 -15 -95 -20 -175 -5
-80 -19 -296 -30 -480 -78 -1267 -189 -2597 -331 -3942 -44 -424 -44 -430 10
-506 20 -27 51 -50 96 -73 158 -78 378 -34 461 91 25 38 28 51 40 233 32 470
83 1555 109 2292 38 1109 62 2442 44 2507 -42 156 -158 226 -277 167z"/>
<path d="M12830 9950 c-311 -83 -514 -357 -497 -670 14 -278 190 -510 450
-597 72 -24 98 -27 207 -27 109 0 135 3 206 27 197 66 355 223 421 420 24 72
27 98 27 207 0 109 -3 135 -27 206 -66 198 -225 357 -420 420 -113 37 -261 42
-367 14z m279 -115 c90 -22 197 -81 261 -145 95 -95 160 -249 160 -380 0 -190
-117 -384 -286 -472 -169 -89 -339 -89 -508 0 -132 69 -236 204 -271 353 -29
127 -12 249 53 373 110 211 360 325 591 271z"/>
<path d="M14033 7000 c-35 -14 -51 -50 -62 -135 -11 -90 -4 -115 42 -149 37
-27 91 -25 124 6 33 30 39 48 48 141 l7 77 -35 35 c-36 36 -76 44 -124 25z"/>
<path d="M13933 6290 c-34 -14 -51 -49 -72 -150 -218 -1053 -739 -2102 -1417
-2854 -107 -118 -124 -142 -124 -179 0 -40 58 -97 96 -97 43 1 68 19 144 102
720 802 1236 1815 1480 2906 24 108 38 191 34 207 -14 56 -84 88 -141 65z"/>
<path d="M3286 6045 c-22 -323 -105 -596 -328 -1069 -247 -525 -312 -729 -310
-981 0 -93 6 -141 25 -216 24 -94 95 -264 105 -254 3 3 21 55 39 117 38 125
93 272 99 265 8 -8 34 -174 49 -314 19 -183 20 -508 0 -633 -15 -104 -46 -212
-77 -275 l-20 -40 37 35 c116 109 212 328 270 612 26 130 55 380 55 473 0 30
3 55 8 55 13 0 80 -65 125 -122 49 -62 124 -196 152 -271 29 -78 40 -46 40
121 -1 220 -29 318 -195 662 -116 240 -140 311 -147 425 -5 84 -3 97 27 180
59 166 88 271 111 401 42 244 25 619 -39 869 l-19 70 -7 -110z"/>
<path d="M10549 4444 c-70 -67 -171 -194 -224 -284 -78 -134 -105 -215 -184
-555 -53 -226 -135 -289 -376 -287 -124 1 -258 19 -454 62 -74 16 -136 28
-138 27 -1 -2 39 -31 91 -65 530 -351 1256 -372 1723 -50 315 217 426 562 302
940 -23 70 -70 180 -85 196 -1 2 -31 -10 -66 -27 -115 -56 -260 -60 -388 -12
-50 19 -114 60 -137 89 -10 12 -20 6 -64 -34z"/>
<path d="M15485 16441 c-168 -78 -164 -314 7 -385 134 -56 288 48 288 194 0
150 -160 253 -295 191z m146 -130 c20 -20 29 -39 29 -61 0 -22 -9 -41 -29 -61
-20 -20 -39 -29 -61 -29 -22 0 -41 9 -61 29 -20 20 -29 39 -29 61 0 22 9 41
29 61 20 20 39 29 61 29 22 0 41 -9 61 -29z"/>
<path d="M15820 15421 c-46 -15 -85 -39 -116 -73 -54 -57 -69 -95 -69 -178 0
-83 15 -121 69 -178 53 -57 101 -77 186 -77 85 0 133 20 186 77 54 57 69 95
69 178 0 54 -6 85 -19 110 -26 49 -74 98 -121 122 -43 22 -144 33 -185 19z
m149 -138 c85 -63 75 -186 -20 -236 -92 -49 -208 33 -195 137 12 104 133 159
215 99z"/>
</g>
</svg>
